<?xml version="1.0" encoding="UTF-8" standalone="no"?>
<!-- Created with Inkscape (http://www.inkscape.org/) -->

<svg
   width="100mm"
   height="75mm"
   viewBox="0 0 100 75"
   version="1.1"
   id="svg5"
   inkscape:version="1.2.1 (9c6d41e, 2022-07-14)"
   sodipodi:docname="unit-a.svg"
   xmlns:inkscape="http://www.inkscape.org/namespaces/inkscape"
   xmlns:sodipodi="http://sodipodi.sourceforge.net/DTD/sodipodi-0.dtd"
   xmlns="http://www.w3.org/2000/svg"
   xmlns:svg="http://www.w3.org/2000/svg">
  <sodipodi:namedview
     id="namedview7"
     pagecolor="#ffffff"
     bordercolor="#000000"
     borderopacity="0.25"
     inkscape:showpageshadow="2"
     inkscape:pageopacity="0.0"
     inkscape:pagecheckerboard="0"
     inkscape:deskcolor="#d1d1d1"
     inkscape:document-units="mm"
     showgrid="false"
     inkscape:zoom="0.87711235"
     inkscape:cx="246.83269"
     inkscape:cy="212.62955"
     inkscape:window-width="1390"
     inkscape:window-height="1205"
     inkscape:window-x="0"
     inkscape:window-y="25"
     inkscape:window-maximized="0"
     inkscape:current-layer="text1887" />
  <defs
     id="defs2">
    <rect
       x="-1.1401048"
       y="43.323982"
       width="405.87731"
       height="194.95792"
       id="rect472" />
    <rect
       x="34.527672"
       y="201.41141"
       width="337.05582"
       height="197.30098"
       id="rect1729" />
    <rect
       x="34.527672"
       y="201.41141"
       width="364.18472"
       height="207.16603"
       id="rect1889" />
    <rect
       x="34.527672"
       y="201.41141"
       width="337.05582"
       height="197.30098"
       id="rect2621" />
  </defs>
  <g
     inkscape:label="Layer 1"
     inkscape:groupmode="layer"
     id="layer1">
    <g
       aria-label="lim"
       transform="matrix(0.98639763,0,0,0.979137,-21.229893,-193.76269)"
       id="text1887"
       style="font-size:58.6667px;font-family:'Heiti SC';-inkscape-font-specification:'Heiti SC';white-space:pre;shape-inside:url(#rect1889);display:inline;opacity:1;fill:#000000;stroke:#aa322c;stroke-width:6e-08">
      <g
         aria-label="unit a icon"
         transform="matrix(0.34721946,0,0,1.0006816,2.9806448,159.3481)"
         id="text470"
         style="font-weight:bold;font-size:53.3333px;font-family:Arial;-inkscape-font-specification:'Arial Bold';text-align:center;text-anchor:middle;shape-inside:url(#rect472);stroke-width:0">
        <path
           d="m 90.495835,91.364426 v -4.140623 q -1.510416,2.213541 -3.984373,3.489582 -2.447915,1.276041 -5.182289,1.276041 -2.786456,0 -4.999997,-1.223958 -2.21354,-1.223958 -3.203123,-3.437498 -0.989582,-2.21354 -0.989582,-6.119788 v -17.49999 h 7.317703 v 12.708326 q 0,5.83333 0.390625,7.161454 0.416667,1.302083 1.484374,2.083332 1.067708,0.755208 2.708332,0.755208 1.874999,0 3.359373,-1.015624 1.484374,-1.041666 2.031249,-2.552082 0.546875,-1.536457 0.546875,-7.473954 v -11.66666 h 7.317704 v 27.656234 z"
           id="path1081" />
        <path
           d="m 130.02706,91.364426 h -7.3177 V 77.249851 q 0,-4.479164 -0.46875,-5.781246 -0.46875,-1.328125 -1.53646,-2.057291 -1.04167,-0.729166 -2.52604,-0.729166 -1.90104,0 -3.41146,1.041666 -1.51041,1.041666 -2.08333,2.760415 -0.54687,1.718749 -0.54687,6.354163 v 12.526034 h -7.31771 V 63.708192 h 6.79687 v 4.062498 q 3.61979,-4.687497 9.11458,-4.687497 2.42188,0 4.42708,0.885416 2.00521,0.859374 3.02083,2.21354 1.04167,1.354166 1.43229,3.072915 0.41667,1.718749 0.41667,4.921872 z"
           id="path1083" />
        <path
           d="m 137.44893,59.958195 v -6.77083 h 7.31771 v 6.77083 z m 0,31.406231 V 63.708192 h 7.31771 v 27.656234 z"
           id="path1085" />
        <path
           d="m 164.94891,63.708192 v 5.83333 h -5 v 11.145827 q 0,3.385415 0.13021,3.958331 0.15625,0.546875 0.65104,0.911458 0.52084,0.364583 1.25,0.364583 1.01563,0 2.94271,-0.703125 l 0.625,5.67708 q -2.55208,1.09375 -5.78125,1.09375 -1.97916,0 -3.5677,-0.651042 -1.58854,-0.677083 -2.34375,-1.718749 -0.72917,-1.067707 -1.01563,-2.864581 -0.23437,-1.276041 -0.23437,-5.156247 V 69.541522 h -3.35937 v -5.83333 h 3.35937 v -5.494788 l 7.34374,-4.270831 v 9.765619 z"
           id="path1087" />
        <path
           d="m 190.31348,72.145687 -6.64062,-1.197916 q 1.11979,-4.010414 3.85417,-5.937496 2.73437,-1.927082 8.12499,-1.927082 4.89583,0 7.29167,1.171874 2.39583,1.145833 3.35937,2.942707 0.98958,1.770832 0.98958,6.536454 l -0.0781,8.541662 q 0,3.645831 0.33854,5.390622 0.36458,1.718748 1.32812,3.697914 h -7.23958 q -0.28646,-0.729166 -0.70312,-2.161457 -0.18229,-0.651041 -0.26042,-0.859375 -1.875,1.822916 -4.01041,2.734374 -2.13542,0.911458 -4.55729,0.911458 -4.27083,0 -6.74479,-2.317707 -2.44791,-2.317707 -2.44791,-5.859372 0,-2.343748 1.11979,-4.166664 1.11979,-1.848957 3.12499,-2.812498 2.03125,-0.989583 5.83333,-1.718749 5.13021,-0.963541 7.10938,-1.796874 v -0.729166 q 0,-2.109374 -1.04167,-2.99479 -1.04167,-0.911458 -3.93229,-0.911458 -1.95312,0 -3.04687,0.781249 -1.09375,0.755208 -1.77084,2.68229 z m 9.79167,5.937497 q -1.40625,0.46875 -4.45313,1.119791 -3.04687,0.651041 -3.98437,1.276041 -1.43229,1.015624 -1.43229,2.578123 0,1.536458 1.14583,2.656249 1.14583,1.119791 2.91667,1.119791 1.97916,0 3.77604,-1.302083 1.32812,-0.989583 1.74479,-2.421873 0.28646,-0.9375 0.28646,-3.567707 z"
           id="path1089" />
        <path
           d="m 229.32388,59.958195 v -6.77083 h 7.3177 v 6.77083 z m 0,31.406231 V 63.708192 h 7.3177 v 27.656234 z"
           id="path1091" />
        <path
           d="m 268.25615,71.885271 -7.21354,1.302082 q -0.36458,-2.161457 -1.66666,-3.255206 -1.27604,-1.093749 -3.33333,-1.093749 -2.73438,0 -4.375,1.90104 -1.61458,1.874999 -1.61458,6.30208 0,4.921872 1.64062,6.953121 1.66667,2.031248 4.45312,2.031248 2.08334,0 3.41146,-1.171874 1.32812,-1.197916 1.875,-4.088539 l 7.18749,1.223958 q -1.11979,4.947913 -4.29687,7.473953 -3.17708,2.526041 -8.51562,2.526041 -6.0677,0 -9.68749,-3.828123 -3.59375,-3.828123 -3.59375,-10.598952 0,-6.848954 3.61979,-10.651035 3.61979,-3.828123 9.79166,-3.828123 5.05208,0 8.02083,2.187499 2.99479,2.161457 4.29687,6.614579 z"
           id="path1093" />
        <path
           d="m 272.11031,77.145684 q 0,-3.645831 1.79688,-7.057287 1.79687,-3.411456 5.07812,-5.20833 3.30729,-1.796874 7.36979,-1.796874 6.27603,0 10.28645,4.088539 4.01041,4.062498 4.01041,10.286452 0,6.276038 -4.0625,10.416661 -4.03645,4.114581 -10.18228,4.114581 -3.80208,0 -7.26562,-1.718749 -3.4375,-1.718749 -5.23437,-5.026039 -1.79688,-3.333331 -1.79688,-8.098954 z m 7.5,0.390625 q 0,4.114581 1.95312,6.30208 1.95313,2.187498 4.81771,2.187498 2.86458,0 4.79166,-2.187498 1.95313,-2.187499 1.95313,-6.354163 0,-4.062498 -1.95313,-6.249996 -1.92708,-2.187499 -4.79166,-2.187499 -2.86458,0 -4.81771,2.187499 -1.95312,2.187498 -1.95312,6.302079 z"
           id="path1095" />
        <path
           d="m 331.53736,91.364426 h -7.3177 V 77.249851 q 0,-4.479164 -0.46875,-5.781246 -0.46875,-1.328125 -1.53646,-2.057291 -1.04166,-0.729166 -2.52604,-0.729166 -1.90104,0 -3.41145,1.041666 -1.51042,1.041666 -2.08333,2.760415 -0.54688,1.718749 -0.54688,6.354163 v 12.526034 h -7.3177 V 63.708192 h 6.79687 v 4.062498 q 3.61979,-4.687497 9.11458,-4.687497 2.42187,0 4.42708,0.885416 2.0052,0.859374 3.02083,2.21354 1.04166,1.354166 1.43229,3.072915 0.41666,1.718749 0.41666,4.921872 z"
           id="path1097" />
      </g>
    </g>
  </g>
</svg>
